<svg width="18" height="14" viewBox="0 0 24 19" fill="#fff" xmlns="http://www.w3.org/2000/svg">
<path d="M19.8983 0.117956C19.8233 0.160143 19.2046 0.741393 18.5343 1.41639L17.3061 2.63514L16.8468 2.44764C13.2608 0.985143 9.14051 1.23358 5.74676 3.12733C5.14676 3.46014 4.22801 4.07889 3.65613 4.54296C3.04207 5.03514 1.79051 6.29139 1.29363 6.91483C0.735819 7.61327 0.0561317 8.63983 0.0186317 8.83671C-0.0329308 9.12264 0.0420692 9.31014 0.468632 9.94764C1.61238 11.6586 3.00926 13.0601 4.74363 14.2367L5.34363 14.6445L4.20926 15.7461C3.55769 16.3836 3.05144 16.9133 3.01394 17.0023C2.77488 17.5742 3.33269 18.1883 3.92332 18.0008C4.06863 17.9539 5.64832 16.3976 12.4593 9.59139C17.4046 4.65546 20.8499 1.18202 20.8874 1.09296C21.0327 0.760143 20.9249 0.403893 20.6155 0.174206C20.4468 0.0476433 20.0811 0.0195183 19.8983 0.117956ZM13.5936 3.11796C13.8655 3.16014 14.3061 3.24452 14.578 3.31014C15.0655 3.42264 16.0218 3.73202 16.0874 3.79296C16.1061 3.81171 15.7874 4.15858 15.3796 4.56639L14.6343 5.31171L14.4983 5.21796C14.2499 5.03983 13.6921 4.78202 13.2796 4.65546C12.8999 4.53827 12.8061 4.52889 12.0468 4.52889C11.2874 4.52889 11.1936 4.53827 10.8139 4.65546C7.88426 5.56014 6.64207 8.88827 8.28269 11.4523L8.36707 11.5789L7.40144 12.5445L6.43113 13.5101L5.83113 13.1164C4.25613 12.0805 2.89207 10.7773 1.85613 9.31952L1.63582 9.00077L1.87019 8.66327C2.50769 7.73983 3.79207 6.37108 4.68738 5.65858C6.54832 4.17733 8.69051 3.28202 10.903 3.05233C11.4843 2.99139 13.003 3.02889 13.5936 3.11796ZM12.9374 6.16952C13.5889 6.38514 13.7436 6.15077 11.4468 8.44764C9.14988 10.7445 9.38426 10.5898 9.16863 9.92889C8.66238 8.39608 9.44051 6.77889 10.9546 6.20702C11.5921 5.96796 12.2811 5.95389 12.9374 6.16952Z" />
<path d="M19.4156 4.74746C19.125 5.03809 18.8906 5.28652 18.8906 5.30059C18.8906 5.31934 19.1063 5.50684 19.3734 5.72246C20.3203 6.4959 21.2297 7.45215 21.975 8.45996C22.1859 8.74121 22.3594 8.98496 22.3594 8.99902C22.3547 9.05059 21.7547 9.85684 21.3891 10.2975C20.9109 10.874 19.8984 11.8678 19.3125 12.3365C17.0297 14.1646 14.3063 15.0975 11.5781 14.9803C10.8703 14.9521 10.2563 14.8818 9.72188 14.76L9.45469 14.699L8.87813 15.3084C8.55938 15.6412 8.30156 15.9271 8.29688 15.9412C8.29688 15.9928 9.47344 16.2646 10.1484 16.3678C11.0344 16.5037 12.8625 16.5131 13.7109 16.3912C15.3469 16.1475 16.8047 15.6693 18.1641 14.9193C20.2547 13.7709 22.1531 12.0084 23.5313 9.9459C23.9578 9.31309 24.0328 9.1209 23.9813 8.83965C23.9438 8.64277 23.2453 7.59277 22.7016 6.91777C22.0031 6.0459 20.8406 4.90215 20.0109 4.27871C19.95 4.23184 19.8563 4.30684 19.4156 4.74746Z" />
<path d="M15.661 8.50426L15.0282 9.13707L14.9485 9.54957C14.6954 10.7824 13.7719 11.7105 12.5485 11.9449L12.1407 12.0246L11.4938 12.6714C11.0063 13.1589 10.8657 13.3277 10.9173 13.3558C10.9548 13.3793 11.1376 13.4214 11.3298 13.4496C13.6126 13.7918 15.7501 12.3621 16.3688 10.0839C16.4438 9.80739 16.4673 9.5777 16.4719 9.07145C16.4766 8.45739 16.4016 7.87614 16.3219 7.87614C16.3032 7.87614 16.0032 8.16207 15.661 8.50426Z" />
</svg>
