<svg width="25" height="25" viewBox="0 0 25 25" stroke="white" fill="none" xmlns="http://www.w3.org/2000/svg">
<path d="M11.5 4.90002H4.5C3.96957 4.90002 3.46086 5.11074 3.08579 5.48581C2.71071 5.86088 2.5 6.36959 2.5 6.90002V20.9C2.5 21.4305 2.71071 21.9392 3.08579 22.3142C3.46086 22.6893 3.96957 22.9 4.5 22.9H18.5C19.0304 22.9 19.5391 22.6893 19.9142 22.3142C20.2893 21.9392 20.5 21.4305 20.5 20.9V13.9" stroke-opacity="0.88" stroke-width="2" stroke-linecap="round" stroke-linejoin="round"/>
<path d="M19 3.40001C19.3978 3.00218 19.9374 2.77869 20.5 2.77869C21.0626 2.77869 21.6022 3.00218 22 3.40001C22.3978 3.79783 22.6213 4.3374 22.6213 4.90001C22.6213 5.46262 22.3978 6.00218 22 6.40001L12.5 15.9L8.5 16.9L9.5 12.9L19 3.40001Z" stroke-opacity="0.88" stroke-width="2" stroke-linecap="round" stroke-linejoin="round"/>
</svg>
