<svg width="73" height="61" viewBox="0 0 73 61" fill="#111c43" xmlns="http://www.w3.org/2000/svg">
<path d="M4.13567 0.416668C2.96653 0.844402 1.92571 1.61433 1.22708 2.55534C-0.027612 4.25202 0.0721927 2.5696 0.0721927 22.944V40.9801L0.41438 41.8071C1.04172 43.3897 2.45325 44.7585 4.0929 45.3716C4.91985 45.6852 4.91985 45.6852 18.3935 45.728C27.7324 45.7565 32.024 45.728 32.3947 45.6139C33.3784 45.3288 33.8347 44.1596 33.2786 43.3469C32.7511 42.6055 33.1075 42.6198 18.7072 42.6198H5.31907L4.69172 42.2919C4.34954 42.1065 3.89329 41.7073 3.67942 41.3936C2.88098 40.2387 2.56731 40.695 8.41301 34.8493L13.6884 29.5739L18.6786 34.5641L23.6689 39.5544H24.3247C24.8808 39.5544 25.0376 39.4831 25.3941 39.0839C25.7077 38.7274 25.8075 38.485 25.8075 38.0288C25.8075 37.4727 25.722 37.3587 24.2392 35.8616L22.6708 34.279L30.3415 26.6225L37.998 18.9518L40.5644 21.5182C43.1451 24.0704 43.1451 24.0846 43.7867 24.0846C44.7419 24.0704 45.3408 23.4716 45.3408 22.502C45.3408 22.0743 44.9986 21.6893 42.1042 18.7807C38.7109 15.3874 38.3402 15.1022 37.556 15.3874C37.3136 15.4729 33.6066 19.0801 28.8445 23.8423L20.5322 32.1403L17.5095 29.1176C14.4298 26.0522 14.0876 25.8098 13.3034 26.0094C13.0325 26.0665 11.2075 27.7917 7.94251 31.0425L2.99504 35.9899L3.02356 20.6485L3.06633 5.3071L3.49407 4.62272C3.80774 4.10944 4.13567 3.81003 4.69172 3.52487L5.44739 3.12565H31.9384H58.4294L59.1851 3.52487C59.7411 3.81003 60.0691 4.10944 60.3827 4.62272L60.8105 5.3071L60.8818 13.6479L60.9531 21.9745L61.3523 22.3167C61.9796 22.8442 62.7781 22.7872 63.3911 22.1741L63.8902 21.6751L63.8474 13.2202C63.8046 4.90788 63.8046 4.75105 63.491 4.00964C63.0347 2.86901 62.1079 1.7569 61.1242 1.1153C59.4845 0.0459671 61.837 0.131512 31.8814 0.131512C5.44739 0.145771 4.90559 0.145771 4.13567 0.416668Z" />
<path d="M17.2098 6.26233C14.0446 6.81839 11.7491 9.99788 12.2481 13.1203C12.7899 16.4424 15.9123 18.7664 19.1203 18.2532C23.141 17.5973 25.4223 13.3912 23.7399 9.72698C22.6135 7.24612 19.876 5.79183 17.2098 6.26233ZM19.876 9.68421C20.1612 9.88382 20.5746 10.2973 20.7885 10.5967C21.1307 11.0957 21.1735 11.2953 21.1735 12.2506C21.1735 13.2059 21.1307 13.4055 20.7885 13.9045C20.5746 14.2039 20.1612 14.6174 19.8618 14.817C19.4198 15.1164 19.1774 15.1735 18.2506 15.1735C17.3239 15.1735 17.0815 15.1164 16.6395 14.817C16.3401 14.6174 15.9266 14.2039 15.7127 13.9045C15.3705 13.4055 15.3278 13.2059 15.3278 12.2364C15.3278 11.2383 15.3705 11.0815 15.7555 10.5254C16.3971 9.61292 17.2383 9.22796 18.4075 9.28499C19.1203 9.32776 19.4768 9.42757 19.876 9.68421Z" />
<path d="M53.2542 24.4557C48.9483 24.9262 45.2271 26.6086 42.2472 29.4174C36.4015 34.9494 34.8474 43.6467 38.4261 50.7898C40.6503 55.1955 44.3146 58.4035 48.9056 59.9291C55.5212 62.1391 62.7642 60.4424 67.6546 55.5234C70.2353 52.9285 71.8892 49.8488 72.6734 46.1418C73.0155 44.5021 73.0155 40.8521 72.6734 39.1982C71.8749 35.4627 70.278 32.4971 67.6546 29.8594C64.9171 27.1076 61.8089 25.4537 58.0591 24.7408C56.8329 24.5127 54.2237 24.3559 53.2542 24.4557ZM58.7435 27.9916C66.8704 30.2443 71.6896 38.7848 69.3655 46.7977C67.8542 52.016 63.7622 55.9939 58.4868 57.4055C57.2607 57.7334 56.8329 57.7762 54.7513 57.7762C52.6696 57.7762 52.2419 57.7334 51.0157 57.4055C41.52 54.8818 36.8292 44.5021 41.2206 35.7621C43.0456 32.1264 46.6814 29.1322 50.5595 28.0629C52.3417 27.5781 52.855 27.5211 55.179 27.5781C57.0183 27.6209 57.6171 27.6922 58.7435 27.9916Z" />
<path d="M54.1106 33.7239C53.5831 33.9948 47.6803 39.8405 47.3952 40.368C46.8391 41.4374 47.5378 42.6208 48.7354 42.6208C49.2915 42.6208 49.6051 42.3784 51.5157 40.4963L53.1838 38.8424V44.5883C53.1838 50.7477 53.2124 51.0186 53.911 51.5176C54.3387 51.817 55.1657 51.817 55.5934 51.5176C56.292 51.0186 56.3206 50.7477 56.3206 44.5883V38.8424L58.0743 40.5819C59.9135 42.3926 60.2129 42.6208 60.8118 42.6208C61.9667 42.6208 62.6653 41.4231 62.1092 40.368C61.7956 39.7834 55.736 33.8237 55.2797 33.6526C54.7522 33.453 54.6239 33.453 54.1106 33.7239Z" />
</svg>
