<svg width="42" height="42" viewBox="0 0 42 42" fill="none" xmlns="http://www.w3.org/2000/svg">
<path d="M17.7253 15.7499V27.5255C17.7389 28.3884 18.0913 29.2113 18.7063 29.8167C19.3213 30.4221 20.1497 30.7614 21.0127 30.7614C21.8757 30.7614 22.7041 30.4221 23.3191 29.8167C23.9341 29.2113 24.2865 28.3884 24.3001 27.5255L24.3108 12.0585C24.3197 11.321 24.1822 10.589 23.9062 9.90507C23.6301 9.2211 23.221 8.59873 22.7027 8.07403C22.1843 7.54934 21.5669 7.13275 20.8864 6.84843C20.2058 6.56411 19.4756 6.4177 18.738 6.4177C18.0004 6.4177 17.2702 6.56411 16.5896 6.84843C15.909 7.13275 15.2917 7.54934 14.7733 8.07403C14.2549 8.59873 13.8459 9.2211 13.5698 9.90507C13.2938 10.589 13.1563 11.321 13.1652 12.0585V27.6297C13.195 29.6878 14.0335 31.6514 15.4994 33.0963C16.9653 34.5412 18.9409 35.3511 20.9992 35.3511C23.0575 35.3511 25.0331 34.5412 26.499 33.0963C27.9649 31.6514 28.8034 29.6878 28.8332 27.6297V13.079" stroke="#7C01F6" stroke-width="2.62032" stroke-miterlimit="10" stroke-linecap="square"/>
</svg>
