<svg width="27" height="23" viewBox="0 0 27 23" fill="none" xmlns="http://www.w3.org/2000/svg">
<path d="M20.4319 2.38371C18.8973 2.38371 17.6434 3.63765 17.6434 5.17217C17.6434 6.70669 18.8973 7.96064 20.4319 7.96064C21.9664 7.96064 23.2203 6.70669 23.2203 5.17217C23.2203 3.63765 21.9664 2.38371 20.4319 2.38371Z" stroke="#8290B0" stroke-width="1.4"/>
<path d="M10.332 0.811239C8.18214 0.811239 6.42815 2.56522 6.42815 4.71509C6.42815 6.86496 8.18214 8.61894 10.332 8.61894C12.4819 8.61894 14.2358 6.86496 14.2358 4.71509C14.2358 2.56522 12.4819 0.811239 10.332 0.811239Z" stroke="#8290B0" stroke-width="1.6"/>
<path fill-rule="evenodd" clip-rule="evenodd" d="M27 19.587V14.7724C27 13.4112 26.2111 12.1217 24.8363 11.166C23.4639 10.212 21.5886 9.66469 19.5979 9.66469C17.6072 9.66469 15.7318 10.212 14.3594 11.166C14.2458 11.245 14.0308 11.4095 14.0308 11.4095L15.3275 12.226C15.2739 12.2605 15.2213 12.2958 15.1697 12.3316C15.0811 12.3933 14.9148 12.5202 14.9148 12.5202L16.5243 12.9796L19.1387 14.6258L19.7537 19.587H27ZM16.5243 12.9796L18.8895 13.6547L20.3999 18.1674H25.5804V14.7724C25.5804 13.9159 25.0441 13.0393 24.0261 12.3316C22.9 11.5489 21.308 11.0843 19.5979 11.0843C17.9661 11.0843 16.4419 11.5073 15.3275 12.226L16.5243 12.9796Z" fill="#8290B0"/>
<path d="M10.3768 11.3067C13.1103 11.3067 15.5639 11.9558 17.2852 12.9674C19.0066 13.979 19.9423 15.29 19.9423 16.6209V21.5808H0.811239V16.6209C0.811239 15.29 1.74699 13.979 3.46833 12.9674C5.18968 11.9558 7.64322 11.3067 10.3768 11.3067V11.3067Z" stroke="#8290B0" stroke-width="1.6"/>
<path fill-rule="evenodd" clip-rule="evenodd" d="M17.1438 11.957C17.1438 11.957 16.49 11.6713 15.9359 11.4385C15.5034 11.2568 14.5013 10.9987 14.5013 10.9987L16.499 9.98539L18.8895 11.3068L17.1438 11.957Z" fill="#1F2124"/>
<rect x="20.7533" y="17.8333" width="1.41712" height="2.02797" fill="#1F2124"/>
</svg>
