<svg width="6" height="6" viewBox="0 0 6 6" fill="none" xmlns="http://www.w3.org/2000/svg">
<path d="M5.68085 4.63413C5.98817 4.94577 5.98817 5.44991 5.68085 5.76064C5.5272 5.91646 5.32834 5.99987 5.12045 5.99987C4.9216 5.99987 4.72275 5.92654 4.56909 5.76064L2.96019 4.13916L1.35129 5.76064C1.19763 5.91646 0.998782 5.99987 0.790891 5.99987C0.592038 5.99987 0.384147 5.91646 0.230488 5.76064C-0.0768294 5.44991 -0.0768294 4.94577 0.230488 4.62496L1.83939 3.00257L0.230488 1.3701C-0.0768294 1.05937 -0.0768294 0.546068 0.230488 0.234422C0.537806 -0.0781406 1.03494 -0.0781406 1.35129 0.234422L2.96019 1.86506L4.56005 0.234422C4.87641 -0.0781406 5.37354 -0.0781406 5.68085 0.234422C5.98817 0.546068 5.98817 1.05937 5.68085 1.3701L4.07196 3.00257L5.68085 4.63413Z" fill="white"/>
</svg>
