<svg width="77" height="77" viewBox="0 0 77 77" fill="none" xmlns="http://www.w3.org/2000/svg">
<g filter="url(#filter0_ddi_631_1458)">
<rect x="18" y="18" width="40" height="40" rx="10.5263" fill="#151423"/>
<rect x="18.5263" y="18.5263" width="38.9474" height="38.9474" rx="10" stroke="#26243F" stroke-width="1.05263"/>
</g>
<path fill-rule="evenodd" clip-rule="evenodd" d="M46.544 35.312H48.752C49.424 35.312 50 35.888 50 36.56V39.44C50 40.112 49.424 40.688 48.752 40.688H46.544C46.256 40.688 45.872 40.976 45.776 41.264C45.68 41.648 45.68 41.936 45.968 42.224L47.6 43.856C47.888 44.048 47.984 44.432 47.984 44.72C47.984 45.008 47.792 45.392 47.6 45.584L45.584 47.6C45.104 48.08 44.336 48.08 43.856 47.6L42.224 45.968C41.936 45.68 41.552 45.68 41.264 45.776C40.88 45.872 40.688 46.16 40.688 46.544V48.752C40.688 49.424 40.112 50 39.44 50H36.56C35.888 50 35.312 49.424 35.312 48.752V46.544C35.312 46.256 35.024 45.872 34.736 45.776C34.352 45.68 34.064 45.68 33.776 45.968L32.144 47.6C31.664 48.08 30.896 48.08 30.416 47.6L28.4 45.584C28.112 45.392 28.016 45.008 28.016 44.72C28.016 44.432 28.208 44.048 28.4 43.856L30.032 42.224C30.32 41.936 30.32 41.552 30.224 41.264C30.128 40.88 29.84 40.688 29.456 40.688H27.248C26.576 40.688 26 40.112 26 39.44V36.56C26 35.888 26.576 35.312 27.248 35.312H29.456C29.744 35.312 30.128 35.024 30.224 34.736C30.32 34.352 30.32 34.064 30.032 33.776L28.4 32.144C28.112 31.952 28.016 31.568 28.016 31.28C28.016 30.992 28.208 30.608 28.4 30.416L30.416 28.4C30.896 27.92 31.664 27.92 32.144 28.4L33.776 30.032C34.064 30.32 34.448 30.32 34.736 30.224C35.12 30.128 35.312 29.84 35.312 29.456V27.248C35.312 26.576 35.888 26 36.56 26H39.44C40.112 26 40.688 26.576 40.688 27.248V29.456C40.688 29.744 40.976 30.128 41.264 30.224C41.648 30.32 41.936 30.32 42.224 30.032L43.856 28.4C44.336 27.92 45.104 27.92 45.584 28.4L47.6 30.416C47.888 30.608 47.984 30.992 47.984 31.28C47.984 31.568 47.792 31.952 47.6 32.144L45.968 33.776C45.68 34.064 45.68 34.448 45.776 34.736C45.872 35.12 46.16 35.312 46.544 35.312ZM48.752 39.824C48.944 39.824 49.136 39.632 49.136 39.44V36.56C49.136 36.368 48.944 36.176 48.752 36.176H46.544C45.776 36.176 45.2 35.792 44.912 35.12C44.624 34.448 44.816 33.68 45.296 33.2L46.928 31.568C47.024 31.472 47.024 31.184 46.928 31.088L44.912 29.072C44.816 28.976 44.528 28.976 44.432 29.072L42.8 30.704C42.32 31.184 41.552 31.376 40.88 31.088C40.208 30.8 39.824 30.224 39.824 29.456V27.248C39.824 27.056 39.632 26.864 39.44 26.864H36.56C36.368 26.864 36.176 27.056 36.176 27.248V29.456C36.176 30.224 35.792 30.8 35.12 31.088C34.448 31.376 33.68 31.184 33.2 30.704L31.568 29.072C31.472 28.976 31.184 28.976 31.088 29.072L29.072 31.088C28.976 31.184 28.976 31.472 29.072 31.568L30.704 33.2C31.184 33.68 31.376 34.448 31.088 35.12C30.8 35.792 30.224 36.176 29.456 36.176H27.248C27.056 36.176 26.864 36.368 26.864 36.56V39.44C26.864 39.632 27.056 39.824 27.248 39.824H29.456C30.224 39.824 30.8 40.208 31.088 40.88C31.376 41.552 31.184 42.32 30.704 42.8L29.072 44.432C28.976 44.528 28.976 44.816 29.072 44.912L31.088 46.928C31.184 47.024 31.472 47.024 31.568 46.928L33.2 45.296C33.584 45.008 33.968 44.816 34.448 44.816C34.64 44.816 34.928 44.816 35.12 44.912C35.792 45.2 36.176 45.776 36.176 46.544V48.752C36.176 48.944 36.368 49.136 36.56 49.136H39.44C39.632 49.136 39.824 48.944 39.824 48.752V46.544C39.824 45.776 40.208 45.2 40.88 44.912C41.552 44.624 42.32 44.816 42.8 45.296L44.432 46.928C44.528 47.024 44.816 47.024 44.912 46.928L46.928 44.912C47.024 44.816 47.024 44.528 46.928 44.432L45.296 42.8C44.816 42.32 44.624 41.552 44.912 40.88C45.2 40.208 45.776 39.824 46.544 39.824H48.752Z" fill="white"/>
<path d="M45.776 41.264L45.5028 41.1729L45.4993 41.1834L45.4966 41.1941L45.776 41.264ZM47.6 43.856L47.3964 44.0596L47.4165 44.0798L47.4402 44.0956L47.6 43.856ZM41.264 45.776L41.3339 46.0554L41.3446 46.0527L41.3551 46.0492L41.264 45.776ZM34.736 45.776L34.8271 45.5028L34.8166 45.4993L34.8059 45.4966L34.736 45.776ZM32.144 47.6L32.3476 47.8036L32.144 47.6ZM30.416 47.6L30.2124 47.8036L30.416 47.6ZM28.4 45.584L28.6036 45.3804L28.5835 45.3602L28.5598 45.3444L28.4 45.584ZM28.4 43.856L28.6036 44.0596H28.6036L28.4 43.856ZM30.224 41.264L29.9446 41.3338L29.9473 41.3446L29.9508 41.3551L30.224 41.264ZM30.224 34.736L30.4972 34.8271L30.5007 34.8166L30.5034 34.8059L30.224 34.736ZM28.4 32.144L28.6036 31.9404L28.5835 31.9202L28.5598 31.9044L28.4 32.144ZM34.736 30.224L34.6662 29.9446L34.6554 29.9473L34.6449 29.9508L34.736 30.224ZM41.264 30.224L41.1729 30.4972L41.1834 30.5007L41.1941 30.5034L41.264 30.224ZM43.856 28.4L44.0596 28.6036L43.856 28.4ZM45.584 28.4L45.3804 28.6036V28.6036L45.584 28.4ZM47.6 30.416L47.3964 30.6196L47.4165 30.6398L47.4402 30.6556L47.6 30.416ZM47.6 32.144L47.8036 32.3476L47.6 32.144ZM45.776 34.736L46.0554 34.6661L46.0527 34.6554L46.0492 34.6449L45.776 34.736ZM45.296 33.2L45.0924 32.9964L45.296 33.2ZM46.928 31.568L47.1316 31.7716V31.7716L46.928 31.568ZM46.928 31.088L47.1316 30.8844V30.8844L46.928 31.088ZM44.912 29.072L45.1156 28.8684L45.1156 28.8684L44.912 29.072ZM44.432 29.072L44.6356 29.2756L44.6356 29.2756L44.432 29.072ZM42.8 30.704L42.5964 30.5004H42.5964L42.8 30.704ZM40.88 31.088L40.9934 30.8233L40.88 31.088ZM35.12 31.088L35.0066 30.8233L35.12 31.088ZM31.568 29.072L31.3644 29.2756L31.3644 29.2756L31.568 29.072ZM31.088 29.072L30.8844 28.8684V28.8684L31.088 29.072ZM29.072 31.088L28.8684 30.8844H28.8684L29.072 31.088ZM29.072 31.568L29.2756 31.3644L29.2756 31.3644L29.072 31.568ZM31.088 35.12L30.8233 35.0066L31.088 35.12ZM31.088 40.88L30.8233 40.9934L31.088 40.88ZM30.704 42.8L30.5004 42.5964V42.5964L30.704 42.8ZM29.072 44.432L29.2756 44.6356L29.2756 44.6356L29.072 44.432ZM29.072 44.912L28.8684 45.1156L28.8684 45.1156L29.072 44.912ZM31.088 46.928L30.8844 47.1316H30.8844L31.088 46.928ZM31.568 46.928L31.7716 47.1316H31.7716L31.568 46.928ZM33.2 45.296L33.0272 45.0656L33.0108 45.0779L32.9964 45.0924L33.2 45.296ZM35.12 44.912L34.9912 45.1696L34.9988 45.1734L35.0066 45.1767L35.12 44.912ZM42.8 45.296L42.5964 45.4996H42.5964L42.8 45.296ZM44.432 46.928L44.6356 46.7244H44.6356L44.432 46.928ZM44.912 46.928L45.1156 47.1316L45.1156 47.1316L44.912 46.928ZM46.928 44.912L47.1316 45.1156L47.1316 45.1156L46.928 44.912ZM46.928 44.432L46.7244 44.6356V44.6356L46.928 44.432ZM45.296 42.8L45.4996 42.5964V42.5964L45.296 42.8ZM48.752 35.024H46.544V35.6H48.752V35.024ZM50.288 36.56C50.288 35.7289 49.5831 35.024 48.752 35.024V35.6C49.2649 35.6 49.712 36.0471 49.712 36.56H50.288ZM50.288 39.44V36.56H49.712V39.44H50.288ZM48.752 40.976C49.5831 40.976 50.288 40.2711 50.288 39.44H49.712C49.712 39.9529 49.2649 40.4 48.752 40.4V40.976ZM46.544 40.976H48.752V40.4H46.544V40.976ZM46.0492 41.3551C46.0728 41.2843 46.1462 41.1843 46.2608 41.0984C46.3769 41.0113 46.4851 40.976 46.544 40.976V40.4C46.3149 40.4 46.0871 40.5087 45.9152 40.6376C45.7418 40.7677 45.5752 40.9557 45.5028 41.1729L46.0492 41.3551ZM46.1716 42.0204C46.0654 41.9141 46.0262 41.8244 46.0126 41.7362C45.9975 41.6375 46.0103 41.5142 46.0554 41.3339L45.4966 41.1941C45.4457 41.3978 45.4105 41.6105 45.4433 41.8238C45.4778 42.0476 45.5826 42.2459 45.7644 42.4276L46.1716 42.0204ZM47.8036 43.6524L46.1716 42.0204L45.7644 42.4276L47.3964 44.0596L47.8036 43.6524ZM48.272 44.72C48.272 44.3959 48.1676 43.8882 47.7598 43.6164L47.4402 44.0956C47.6084 44.2078 47.696 44.4681 47.696 44.72H48.272ZM47.8036 45.7876C47.9291 45.6622 48.0429 45.4877 48.1255 45.3087C48.2074 45.1313 48.272 44.9206 48.272 44.72H47.696C47.696 44.8074 47.6646 44.9327 47.6025 45.0673C47.5411 45.2003 47.4629 45.3138 47.3964 45.3804L47.8036 45.7876ZM45.7876 47.8036L47.8036 45.7876L47.3964 45.3804L45.3804 47.3964L45.7876 47.8036ZM43.6524 47.8036C44.2448 48.3961 45.1952 48.3961 45.7876 47.8036L45.3804 47.3964C45.0128 47.7639 44.4272 47.7639 44.0596 47.3964L43.6524 47.8036ZM42.0204 46.1716L43.6524 47.8036L44.0596 47.3964L42.4276 45.7644L42.0204 46.1716ZM41.3551 46.0492C41.5808 45.974 41.8361 45.9874 42.0204 46.1716L42.4276 45.7644C42.0359 45.3726 41.5232 45.386 41.1729 45.5028L41.3551 46.0492ZM40.976 46.544C40.976 46.3996 41.0118 46.2944 41.0649 46.2214C41.1165 46.1505 41.1993 46.089 41.3339 46.0554L41.1941 45.4966C40.9447 45.559 40.7395 45.6895 40.5991 45.8826C40.4602 46.0736 40.4 46.3044 40.4 46.544H40.976ZM40.976 48.752V46.544H40.4V48.752H40.976ZM39.44 50.288C40.2711 50.288 40.976 49.5831 40.976 48.752H40.4C40.4 49.2649 39.9529 49.712 39.44 49.712V50.288ZM36.56 50.288H39.44V49.712H36.56V50.288ZM35.024 48.752C35.024 49.5831 35.7289 50.288 36.56 50.288V49.712C36.0471 49.712 35.6 49.2649 35.6 48.752H35.024ZM35.024 46.544V48.752H35.6V46.544H35.024ZM34.6449 46.0492C34.7157 46.0728 34.8157 46.1462 34.9016 46.2608C34.9887 46.3769 35.024 46.4851 35.024 46.544H35.6C35.6 46.3149 35.4913 46.0871 35.3624 45.9152C35.2323 45.7418 35.0443 45.5752 34.8271 45.5028L34.6449 46.0492ZM33.9796 46.1716C34.0859 46.0654 34.1756 46.0262 34.2638 46.0126C34.3625 45.9975 34.4858 46.0103 34.6661 46.0554L34.8059 45.4966C34.6022 45.4457 34.3895 45.4105 34.1762 45.4433C33.9524 45.4778 33.7541 45.5826 33.5724 45.7644L33.9796 46.1716ZM32.3476 47.8036L33.9796 46.1716L33.5724 45.7644L31.9404 47.3964L32.3476 47.8036ZM30.2124 47.8036C30.8048 48.3961 31.7552 48.3961 32.3476 47.8036L31.9404 47.3964C31.5728 47.7639 30.9872 47.7639 30.6196 47.3964L30.2124 47.8036ZM28.1964 45.7876L30.2124 47.8036L30.6196 47.3964L28.6036 45.3804L28.1964 45.7876ZM27.728 44.72C27.728 45.0441 27.8324 45.5518 28.2402 45.8236L28.5598 45.3444C28.3916 45.2322 28.304 44.9719 28.304 44.72H27.728ZM28.1964 43.6524C28.0709 43.7778 27.9571 43.9523 27.8745 44.1313C27.7926 44.3087 27.728 44.5194 27.728 44.72H28.304C28.304 44.6326 28.3354 44.5073 28.3975 44.3727C28.4589 44.2397 28.5371 44.1262 28.6036 44.0596L28.1964 43.6524ZM29.8284 42.0204L28.1964 43.6524L28.6036 44.0596L30.2356 42.4276L29.8284 42.0204ZM29.9508 41.3551C30.026 41.5808 30.0126 41.8361 29.8284 42.0204L30.2356 42.4276C30.6274 42.0359 30.614 41.5232 30.4972 41.1729L29.9508 41.3551ZM29.456 40.976C29.6004 40.976 29.7056 41.0118 29.7786 41.0649C29.8495 41.1165 29.911 41.1993 29.9446 41.3338L30.5034 41.1941C30.441 40.9447 30.3105 40.7395 30.1174 40.5991C29.9264 40.4602 29.6956 40.4 29.456 40.4V40.976ZM27.248 40.976H29.456V40.4H27.248V40.976ZM25.712 39.44C25.712 40.2711 26.4169 40.976 27.248 40.976V40.4C26.7351 40.4 26.288 39.9529 26.288 39.44H25.712ZM25.712 36.56V39.44H26.288V36.56H25.712ZM27.248 35.024C26.4169 35.024 25.712 35.7289 25.712 36.56H26.288C26.288 36.0471 26.7351 35.6 27.248 35.6V35.024ZM29.456 35.024H27.248V35.6H29.456V35.024ZM29.9508 34.6449C29.9272 34.7157 29.8538 34.8157 29.7392 34.9016C29.6231 34.9887 29.5149 35.024 29.456 35.024V35.6C29.6851 35.6 29.9129 35.4913 30.0848 35.3624C30.2582 35.2323 30.4248 35.0443 30.4972 34.8271L29.9508 34.6449ZM29.8284 33.9796C29.9346 34.0859 29.9738 34.1756 29.9873 34.2638C30.0025 34.3625 29.9897 34.4858 29.9446 34.6662L30.5034 34.8059C30.5543 34.6022 30.5895 34.3895 30.5567 34.1762C30.5222 33.9524 30.4174 33.7541 30.2356 33.5724L29.8284 33.9796ZM28.1964 32.3476L29.8284 33.9796L30.2356 33.5724L28.6036 31.9404L28.1964 32.3476ZM27.728 31.28C27.728 31.6041 27.8324 32.1118 28.2402 32.3836L28.5598 31.9044C28.3916 31.7922 28.304 31.5319 28.304 31.28H27.728ZM28.1964 30.2124C28.0709 30.3378 27.9571 30.5123 27.8745 30.6913C27.7926 30.8687 27.728 31.0794 27.728 31.28H28.304C28.304 31.1926 28.3354 31.0673 28.3975 30.9327C28.4589 30.7997 28.5371 30.6862 28.6036 30.6196L28.1964 30.2124ZM30.2124 28.1964L28.1964 30.2124L28.6036 30.6196L30.6196 28.6036L30.2124 28.1964ZM32.3476 28.1964C31.7552 27.6039 30.8048 27.6039 30.2124 28.1964L30.6196 28.6036C30.9872 28.2361 31.5728 28.2361 31.9404 28.6036L32.3476 28.1964ZM33.9796 29.8284L32.3476 28.1964L31.9404 28.6036L33.5724 30.2356L33.9796 29.8284ZM34.6449 29.9508C34.4192 30.026 34.1639 30.0126 33.9796 29.8284L33.5724 30.2356C33.9641 30.6274 34.4768 30.614 34.8271 30.4972L34.6449 29.9508ZM35.024 29.456C35.024 29.6004 34.9882 29.7056 34.9351 29.7786C34.8835 29.8495 34.8007 29.911 34.6662 29.9446L34.8059 30.5034C35.0553 30.441 35.2605 30.3105 35.4009 30.1174C35.5398 29.9264 35.6 29.6956 35.6 29.456H35.024ZM35.024 27.248V29.456H35.6V27.248H35.024ZM36.56 25.712C35.7289 25.712 35.024 26.4169 35.024 27.248H35.6C35.6 26.7351 36.0471 26.288 36.56 26.288V25.712ZM39.44 25.712H36.56V26.288H39.44V25.712ZM40.976 27.248C40.976 26.4169 40.2711 25.712 39.44 25.712V26.288C39.9529 26.288 40.4 26.7351 40.4 27.248H40.976ZM40.976 29.456V27.248H40.4V29.456H40.976ZM41.3551 29.9508C41.2843 29.9272 41.1843 29.8538 41.0984 29.7392C41.0113 29.6231 40.976 29.5149 40.976 29.456H40.4C40.4 29.6851 40.5087 29.9129 40.6376 30.0848C40.7677 30.2582 40.9557 30.4248 41.1729 30.4972L41.3551 29.9508ZM42.0204 29.8284C41.9141 29.9346 41.8244 29.9738 41.7362 29.9873C41.6375 30.0025 41.5142 29.9897 41.3338 29.9446L41.1941 30.5034C41.3978 30.5543 41.6105 30.5895 41.8238 30.5567C42.0476 30.5222 42.2459 30.4174 42.4276 30.2356L42.0204 29.8284ZM43.6524 28.1964L42.0204 29.8284L42.4276 30.2356L44.0596 28.6036L43.6524 28.1964ZM45.7876 28.1964C45.1952 27.6039 44.2448 27.6039 43.6524 28.1964L44.0596 28.6036C44.4272 28.2361 45.0128 28.2361 45.3804 28.6036L45.7876 28.1964ZM47.8036 30.2124L45.7876 28.1964L45.3804 28.6036L47.3964 30.6196L47.8036 30.2124ZM48.272 31.28C48.272 30.9559 48.1676 30.4482 47.7598 30.1764L47.4402 30.6556C47.6084 30.7678 47.696 31.0281 47.696 31.28H48.272ZM47.8036 32.3476C47.9291 32.2222 48.0429 32.0477 48.1255 31.8687C48.2074 31.6913 48.272 31.4806 48.272 31.28H47.696C47.696 31.3674 47.6646 31.4927 47.6025 31.6273C47.5411 31.7603 47.4629 31.8738 47.3964 31.9404L47.8036 32.3476ZM46.1716 33.9796L47.8036 32.3476L47.3964 31.9404L45.7644 33.5724L46.1716 33.9796ZM46.0492 34.6449C45.974 34.4192 45.9874 34.1639 46.1716 33.9796L45.7644 33.5724C45.3726 33.9641 45.386 34.4768 45.5028 34.8271L46.0492 34.6449ZM46.544 35.024C46.3996 35.024 46.2944 34.9882 46.2214 34.9351C46.1505 34.8835 46.089 34.8007 46.0554 34.6661L45.4966 34.8059C45.559 35.0553 45.6895 35.2605 45.8826 35.4009C46.0736 35.5398 46.3044 35.6 46.544 35.6V35.024ZM48.848 39.44C48.848 39.44 48.848 39.4416 48.8472 39.4449C48.8464 39.4483 48.8449 39.4531 48.842 39.4592C48.8362 39.4718 48.8262 39.4865 48.8124 39.5004C48.7985 39.5142 48.7838 39.5242 48.7712 39.53C48.7651 39.5329 48.7603 39.5344 48.7569 39.5352C48.7536 39.536 48.752 39.536 48.752 39.536V40.112C48.9417 40.112 49.1072 40.0201 49.2196 39.9076C49.3321 39.7952 49.424 39.6297 49.424 39.44H48.848ZM48.848 36.56V39.44H49.424V36.56H48.848ZM48.752 36.464C48.752 36.464 48.7536 36.464 48.7569 36.4648C48.7603 36.4656 48.7651 36.4671 48.7712 36.47C48.7838 36.4758 48.7985 36.4858 48.8124 36.4996C48.8439 36.5312 48.848 36.5577 48.848 36.56H49.424C49.424 36.3703 49.3321 36.2048 49.2196 36.0924C49.1072 35.9799 48.9417 35.888 48.752 35.888V36.464ZM46.544 36.464H48.752V35.888H46.544V36.464ZM44.6473 35.2334C44.9816 36.0135 45.6631 36.464 46.544 36.464V35.888C45.8889 35.888 45.4184 35.5705 45.1767 35.0066L44.6473 35.2334ZM45.0924 32.9964C44.536 33.5527 44.3091 34.4445 44.6473 35.2334L45.1767 35.0066C44.9389 34.4515 45.096 33.8073 45.4996 33.4036L45.0924 32.9964ZM46.7244 31.3644L45.0924 32.9964L45.4996 33.4036L47.1316 31.7716L46.7244 31.3644ZM46.7244 31.2916C46.7114 31.2786 46.7056 31.2682 46.7042 31.2655C46.7026 31.2625 46.7034 31.2633 46.7051 31.2691C46.7086 31.2815 46.712 31.3024 46.712 31.328C46.712 31.3536 46.7086 31.3745 46.7051 31.3869C46.7034 31.3927 46.7026 31.3935 46.7042 31.3905C46.7056 31.3878 46.7114 31.3774 46.7244 31.3644L47.1316 31.7716C47.2031 31.7002 47.2396 31.6128 47.2589 31.5451C47.2794 31.4735 47.288 31.3984 47.288 31.328C47.288 31.2576 47.2794 31.1825 47.2589 31.1109C47.2396 31.0432 47.2031 30.9558 47.1316 30.8844L46.7244 31.2916ZM44.7084 29.2756L46.7244 31.2916L47.1316 30.8844L45.1156 28.8684L44.7084 29.2756ZM44.6356 29.2756C44.6227 29.2886 44.6122 29.2944 44.6095 29.2958C44.6065 29.2974 44.6073 29.2966 44.6131 29.2949C44.6255 29.2914 44.6464 29.288 44.672 29.288C44.6976 29.288 44.7185 29.2914 44.7309 29.2949C44.7367 29.2966 44.7375 29.2974 44.7345 29.2958C44.7318 29.2944 44.7214 29.2886 44.7084 29.2756L45.1156 28.8684C45.0442 28.7969 44.9568 28.7604 44.8891 28.7411C44.8175 28.7206 44.7424 28.712 44.672 28.712C44.6016 28.712 44.5265 28.7206 44.4549 28.7411C44.3872 28.7604 44.2998 28.7969 44.2284 28.8684L44.6356 29.2756ZM43.0036 30.9076L44.6356 29.2756L44.2284 28.8684L42.5964 30.5004L43.0036 30.9076ZM40.7666 31.3527C41.5555 31.6909 42.4473 31.464 43.0036 30.9076L42.5964 30.5004C42.1927 30.904 41.5485 31.0611 40.9934 30.8233L40.7666 31.3527ZM39.536 29.456C39.536 30.3369 39.9865 31.0184 40.7666 31.3527L40.9934 30.8233C40.4295 30.5816 40.112 30.1111 40.112 29.456H39.536ZM39.536 27.248V29.456H40.112V27.248H39.536ZM39.44 27.152C39.44 27.152 39.4416 27.152 39.4449 27.1528C39.4483 27.1536 39.4531 27.1551 39.4592 27.158C39.4718 27.1638 39.4865 27.1738 39.5004 27.1876C39.5142 27.2015 39.5242 27.2162 39.53 27.2288C39.5329 27.2349 39.5344 27.2397 39.5352 27.2431C39.536 27.2464 39.536 27.248 39.536 27.248H40.112C40.112 27.0583 40.0201 26.8928 39.9076 26.7804C39.7952 26.6679 39.6297 26.576 39.44 26.576V27.152ZM36.56 27.152H39.44V26.576H36.56V27.152ZM36.464 27.248C36.464 27.2457 36.4681 27.2192 36.4996 27.1876C36.5312 27.1561 36.5577 27.152 36.56 27.152V26.576C36.3703 26.576 36.2048 26.6679 36.0924 26.7804C35.9799 26.8928 35.888 27.0583 35.888 27.248H36.464ZM36.464 29.456V27.248H35.888V29.456H36.464ZM35.2334 31.3527C36.0135 31.0184 36.464 30.3369 36.464 29.456H35.888C35.888 30.1111 35.5705 30.5816 35.0066 30.8233L35.2334 31.3527ZM32.9964 30.9076C33.5527 31.464 34.4445 31.6909 35.2334 31.3527L35.0066 30.8233C34.4515 31.0611 33.8073 30.904 33.4036 30.5004L32.9964 30.9076ZM31.3644 29.2756L32.9964 30.9076L33.4036 30.5004L31.7716 28.8684L31.3644 29.2756ZM31.2916 29.2756C31.2786 29.2886 31.2682 29.2944 31.2655 29.2958C31.2625 29.2974 31.2633 29.2966 31.2691 29.2949C31.2815 29.2914 31.3024 29.288 31.328 29.288C31.3536 29.288 31.3745 29.2914 31.3869 29.2949C31.3927 29.2966 31.3935 29.2974 31.3905 29.2958C31.3878 29.2944 31.3774 29.2886 31.3644 29.2756L31.7716 28.8684C31.7002 28.7969 31.6128 28.7604 31.5451 28.7411C31.4735 28.7206 31.3984 28.712 31.328 28.712C31.2576 28.712 31.1825 28.7206 31.1109 28.7411C31.0432 28.7604 30.9558 28.7969 30.8844 28.8684L31.2916 29.2756ZM29.2756 31.2916L31.2916 29.2756L30.8844 28.8684L28.8684 30.8844L29.2756 31.2916ZM29.2756 31.3644C29.2886 31.3774 29.2944 31.3878 29.2958 31.3905C29.2974 31.3935 29.2966 31.3927 29.2949 31.3869C29.2914 31.3745 29.288 31.3536 29.288 31.328C29.288 31.3024 29.2914 31.2815 29.2949 31.2691C29.2966 31.2633 29.2974 31.2625 29.2958 31.2655C29.2944 31.2682 29.2886 31.2786 29.2756 31.2916L28.8684 30.8844C28.7969 30.9558 28.7604 31.0432 28.7411 31.1109C28.7206 31.1825 28.712 31.2576 28.712 31.328C28.712 31.3984 28.7206 31.4735 28.7411 31.5451C28.7604 31.6128 28.7969 31.7002 28.8684 31.7716L29.2756 31.3644ZM30.9076 32.9964L29.2756 31.3644L28.8684 31.7716L30.5004 33.4036L30.9076 32.9964ZM31.3527 35.2334C31.6909 34.4445 31.464 33.5527 30.9076 32.9964L30.5004 33.4036C30.904 33.8073 31.0611 34.4515 30.8233 35.0066L31.3527 35.2334ZM29.456 36.464C30.3369 36.464 31.0184 36.0135 31.3527 35.2334L30.8233 35.0066C30.5816 35.5705 30.1111 35.888 29.456 35.888V36.464ZM27.248 36.464H29.456V35.888H27.248V36.464ZM27.152 36.56C27.152 36.5577 27.1561 36.5312 27.1876 36.4996C27.2192 36.4681 27.2457 36.464 27.248 36.464V35.888C27.0583 35.888 26.8928 35.9799 26.7804 36.0924C26.6679 36.2048 26.576 36.3703 26.576 36.56H27.152ZM27.152 39.44V36.56H26.576V39.44H27.152ZM27.248 39.536C27.248 39.536 27.2464 39.536 27.2431 39.5352C27.2397 39.5344 27.2349 39.5329 27.2288 39.53C27.2162 39.5242 27.2015 39.5142 27.1876 39.5004C27.1738 39.4865 27.1638 39.4718 27.158 39.4592C27.1551 39.4531 27.1536 39.4483 27.1528 39.4449C27.152 39.4416 27.152 39.44 27.152 39.44H26.576C26.576 39.6297 26.6679 39.7952 26.7804 39.9076C26.8928 40.0201 27.0583 40.112 27.248 40.112V39.536ZM29.456 39.536H27.248V40.112H29.456V39.536ZM31.3527 40.7666C31.0184 39.9865 30.3369 39.536 29.456 39.536V40.112C30.1111 40.112 30.5816 40.4295 30.8233 40.9934L31.3527 40.7666ZM30.9076 43.0036C31.464 42.4473 31.6909 41.5555 31.3527 40.7666L30.8233 40.9934C31.0611 41.5485 30.904 42.1927 30.5004 42.5964L30.9076 43.0036ZM29.2756 44.6356L30.9076 43.0036L30.5004 42.5964L28.8684 44.2284L29.2756 44.6356ZM29.2756 44.7084C29.2886 44.7214 29.2944 44.7318 29.2958 44.7345C29.2974 44.7375 29.2966 44.7367 29.2949 44.7309C29.2914 44.7185 29.288 44.6976 29.288 44.672C29.288 44.6464 29.2914 44.6255 29.2949 44.6131C29.2966 44.6073 29.2974 44.6065 29.2958 44.6095C29.2944 44.6122 29.2886 44.6227 29.2756 44.6356L28.8684 44.2284C28.7969 44.2998 28.7604 44.3872 28.7411 44.4549C28.7206 44.5265 28.712 44.6016 28.712 44.672C28.712 44.7424 28.7206 44.8175 28.7411 44.8891C28.7604 44.9568 28.7969 45.0442 28.8684 45.1156L29.2756 44.7084ZM31.2916 46.7244L29.2756 44.7084L28.8684 45.1156L30.8844 47.1316L31.2916 46.7244ZM31.3644 46.7244C31.3774 46.7114 31.3878 46.7056 31.3905 46.7042C31.3935 46.7026 31.3927 46.7034 31.3869 46.7051C31.3745 46.7086 31.3536 46.712 31.328 46.712C31.3024 46.712 31.2815 46.7086 31.2691 46.7051C31.2633 46.7034 31.2625 46.7026 31.2655 46.7042C31.2682 46.7056 31.2786 46.7114 31.2916 46.7244L30.8844 47.1316C30.9558 47.2031 31.0432 47.2396 31.1109 47.2589C31.1825 47.2794 31.2576 47.288 31.328 47.288C31.3984 47.288 31.4735 47.2794 31.5451 47.2589C31.6128 47.2396 31.7002 47.2031 31.7716 47.1316L31.3644 46.7244ZM32.9964 45.0924L31.3644 46.7244L31.7716 47.1316L33.4036 45.4996L32.9964 45.0924ZM34.448 44.528C33.8807 44.528 33.4365 44.7586 33.0272 45.0656L33.3728 45.5264C33.7315 45.2574 34.0553 45.104 34.448 45.104V44.528ZM35.2488 44.6544C35.1066 44.5833 34.9459 44.5548 34.8127 44.5414C34.6763 44.5278 34.5424 44.528 34.448 44.528V45.104C34.5456 45.104 34.6517 45.1042 34.7553 45.1146C34.8621 45.1252 34.9414 45.1447 34.9912 45.1696L35.2488 44.6544ZM36.464 46.544C36.464 45.6631 36.0135 44.9816 35.2334 44.6473L35.0066 45.1767C35.5705 45.4184 35.888 45.8889 35.888 46.544H36.464ZM36.464 48.752V46.544H35.888V48.752H36.464ZM36.56 48.848C36.5577 48.848 36.5312 48.8439 36.4996 48.8124C36.4858 48.7985 36.4758 48.7838 36.47 48.7712C36.4671 48.7651 36.4656 48.7603 36.4648 48.7569C36.464 48.7536 36.464 48.752 36.464 48.752H35.888C35.888 48.9417 35.9799 49.1072 36.0924 49.2196C36.2048 49.3321 36.3703 49.424 36.56 49.424V48.848ZM39.44 48.848H36.56V49.424H39.44V48.848ZM39.536 48.752C39.536 48.752 39.536 48.7536 39.5352 48.7569C39.5344 48.7603 39.5329 48.7651 39.53 48.7712C39.5242 48.7838 39.5142 48.7985 39.5004 48.8124C39.4865 48.8262 39.4718 48.8362 39.4592 48.842C39.4531 48.8449 39.4483 48.8464 39.4449 48.8472C39.4416 48.848 39.44 48.848 39.44 48.848V49.424C39.6297 49.424 39.7952 49.3321 39.9076 49.2196C40.0201 49.1072 40.112 48.9417 40.112 48.752H39.536ZM39.536 46.544V48.752H40.112V46.544H39.536ZM40.7666 44.6473C39.9865 44.9816 39.536 45.6631 39.536 46.544H40.112C40.112 45.8889 40.4295 45.4184 40.9934 45.1767L40.7666 44.6473ZM43.0036 45.0924C42.4473 44.536 41.5555 44.3091 40.7666 44.6473L40.9934 45.1767C41.5485 44.9389 42.1927 45.096 42.5964 45.4996L43.0036 45.0924ZM44.6356 46.7244L43.0036 45.0924L42.5964 45.4996L44.2284 47.1316L44.6356 46.7244ZM44.7084 46.7243C44.7214 46.7114 44.7318 46.7056 44.7345 46.7042C44.7375 46.7026 44.7367 46.7034 44.7309 46.7051C44.7185 46.7086 44.6976 46.712 44.672 46.712C44.6464 46.712 44.6255 46.7086 44.6131 46.7051C44.6073 46.7034 44.6065 46.7026 44.6095 46.7042C44.6122 46.7056 44.6226 46.7114 44.6356 46.7244L44.2284 47.1316C44.2998 47.2031 44.3872 47.2396 44.4549 47.2589C44.5265 47.2794 44.6016 47.288 44.672 47.288C44.7424 47.288 44.8175 47.2794 44.8891 47.2589C44.9568 47.2396 45.0442 47.2031 45.1156 47.1316L44.7084 46.7243ZM46.7244 44.7084L44.7084 46.7244L45.1156 47.1316L47.1316 45.1156L46.7244 44.7084ZM46.7244 44.6356C46.7114 44.6226 46.7056 44.6122 46.7042 44.6095C46.7026 44.6065 46.7034 44.6073 46.7051 44.6131C46.7086 44.6255 46.712 44.6464 46.712 44.672C46.712 44.6976 46.7086 44.7185 46.7051 44.7309C46.7034 44.7367 46.7026 44.7375 46.7042 44.7345C46.7056 44.7318 46.7114 44.7214 46.7243 44.7084L47.1316 45.1156C47.2031 45.0442 47.2396 44.9568 47.2589 44.8891C47.2794 44.8175 47.288 44.7424 47.288 44.672C47.288 44.6016 47.2794 44.5265 47.2589 44.4549C47.2396 44.3872 47.2031 44.2998 47.1316 44.2284L46.7244 44.6356ZM45.0924 43.0036L46.7244 44.6356L47.1316 44.2284L45.4996 42.5964L45.0924 43.0036ZM44.6473 40.7666C44.3091 41.5555 44.536 42.4473 45.0924 43.0036L45.4996 42.5964C45.096 42.1927 44.9389 41.5485 45.1767 40.9934L44.6473 40.7666ZM46.544 39.536C45.6631 39.536 44.9816 39.9865 44.6473 40.7666L45.1767 40.9934C45.4184 40.4295 45.8889 40.112 46.544 40.112V39.536ZM48.752 39.536H46.544V40.112H48.752V39.536Z" fill="white"/>
<path fill-rule="evenodd" clip-rule="evenodd" d="M33.9678 38C33.9678 35.792 35.7918 33.968 37.9998 33.968C40.2078 33.968 42.0318 35.792 42.0318 38C42.0318 40.208 40.2078 42.032 37.9998 42.032C35.7918 42.032 33.9678 40.208 33.9678 38ZM34.9278 38C34.9278 39.632 36.2718 41.072 37.9998 41.072C39.7278 41.072 41.0718 39.632 41.0718 38C41.0718 36.368 39.6318 34.928 37.9998 34.928C36.3678 34.928 34.9278 36.368 34.9278 38Z" fill="white"/>
<path d="M37.9998 33.68C35.6327 33.68 33.6798 35.633 33.6798 38H34.2558C34.2558 35.9511 35.9508 34.256 37.9998 34.256V33.68ZM42.3198 38C42.3198 35.633 40.3668 33.68 37.9998 33.68V34.256C40.0487 34.256 41.7438 35.9511 41.7438 38H42.3198ZM37.9998 42.32C40.3668 42.32 42.3198 40.3671 42.3198 38H41.7438C41.7438 40.049 40.0487 41.744 37.9998 41.744V42.32ZM33.6798 38C33.6798 40.3671 35.6327 42.32 37.9998 42.32V41.744C35.9508 41.744 34.2558 40.049 34.2558 38H33.6798ZM37.9998 40.784C36.4366 40.784 35.2158 39.4788 35.2158 38H34.6398C34.6398 39.7852 36.1069 41.36 37.9998 41.36V40.784ZM40.7838 38C40.7838 39.4788 39.5629 40.784 37.9998 40.784V41.36C39.8926 41.36 41.3598 39.7852 41.3598 38H40.7838ZM37.9998 35.216C39.4727 35.216 40.7838 36.5271 40.7838 38H41.3598C41.3598 36.209 39.7908 34.64 37.9998 34.64V35.216ZM35.2158 38C35.2158 36.5271 36.5268 35.216 37.9998 35.216V34.64C36.2087 34.64 34.6398 36.209 34.6398 38H35.2158Z" fill="white"/>
<defs>
<filter id="filter0_ddi_631_1458" x="0" y="0" width="77" height="77" filterUnits="userSpaceOnUse" color-interpolation-filters="sRGB">
<feFlood flood-opacity="0" result="BackgroundImageFix"/>
<feColorMatrix in="SourceAlpha" type="matrix" values="0 0 0 0 0 0 0 0 0 0 0 0 0 0 0 0 0 0 127 0" result="hardAlpha"/>
<feOffset dx="6" dy="6"/>
<feGaussianBlur stdDeviation="6.5"/>
<feColorMatrix type="matrix" values="0 0 0 0 0.0718815 0 0 0 0 0.0679761 0 0 0 0 0.126557 0 0 0 1 0"/>
<feBlend mode="normal" in2="BackgroundImageFix" result="effect1_dropShadow_631_1458"/>
<feColorMatrix in="SourceAlpha" type="matrix" values="0 0 0 0 0 0 0 0 0 0 0 0 0 0 0 0 0 0 127 0" result="hardAlpha"/>
<feOffset dx="-5" dy="-5"/>
<feGaussianBlur stdDeviation="6.5"/>
<feColorMatrix type="matrix" values="0 0 0 0 0.138452 0 0 0 0 0.133993 0 0 0 0 0.223166 0 0 0 1 0"/>
<feBlend mode="normal" in2="effect1_dropShadow_631_1458" result="effect2_dropShadow_631_1458"/>
<feBlend mode="normal" in="SourceGraphic" in2="effect2_dropShadow_631_1458" result="shape"/>
<feColorMatrix in="SourceAlpha" type="matrix" values="0 0 0 0 0 0 0 0 0 0 0 0 0 0 0 0 0 0 127 0" result="hardAlpha"/>
<feOffset/>
<feGaussianBlur stdDeviation="1.5"/>
<feComposite in2="hardAlpha" operator="arithmetic" k2="-1" k3="1"/>
<feColorMatrix type="matrix" values="0 0 0 0 0.124017 0 0 0 0 0.129231 0 0 0 0 0.142267 0 0 0 1 0"/>
<feBlend mode="normal" in2="shape" result="effect3_innerShadow_631_1458"/>
</filter>
</defs>
</svg>
