<svg width="27" height="23" viewBox="0 0 27 23" fill="none" xmlns="http://www.w3.org/2000/svg">
<path d="M20.4319 2.38371C18.8973 2.38371 17.6434 3.63766 17.6434 5.17218C17.6434 6.70671 18.8973 7.96065 20.4319 7.96065C21.9664 7.96065 23.2203 6.70671 23.2203 5.17218C23.2203 3.63766 21.9664 2.38371 20.4319 2.38371Z" stroke="#8290B0" stroke-width="1.4"/>
<path d="M10.332 0.81124C8.18212 0.81124 6.42813 2.56522 6.42813 4.7151C6.42813 6.86497 8.18212 8.61895 10.332 8.61895C12.4818 8.61895 14.2358 6.86497 14.2358 4.7151C14.2358 2.56522 12.4818 0.81124 10.332 0.81124Z" stroke="#8290B0" stroke-width="1.6"/>
<path fill-rule="evenodd" clip-rule="evenodd" d="M27 19.5869V14.7723C27 13.4111 26.2111 12.1216 24.8364 11.1659C23.464 10.2119 21.5886 9.66458 19.5979 9.66458C17.6072 9.66458 15.7318 10.2119 14.3594 11.1659C14.2458 11.2449 14.0308 11.4094 14.0308 11.4094L15.3275 12.2259C15.2739 12.2604 15.2213 12.2956 15.1697 12.3315C15.081 12.3931 14.9148 12.5201 14.9148 12.5201L16.5243 12.9795L19.1387 14.6257L19.7537 19.5869H27ZM16.5243 12.9795L18.8895 13.6546L20.3999 18.1673H25.5804V14.7723C25.5804 13.9158 25.0441 13.0392 24.0261 12.3315C22.9001 11.5488 21.308 11.0842 19.5979 11.0842C17.9661 11.0842 16.4419 11.5072 15.3275 12.2259L16.5243 12.9795Z" fill="#8290B0"/>
<path d="M10.3767 11.3069C13.1103 11.3069 15.5638 11.956 17.2852 12.9676C19.0065 13.9792 19.9423 15.2902 19.9423 16.6211V21.581H0.811179V16.6211C0.811179 15.2902 1.74693 13.9792 3.46828 12.9676C5.18963 11.956 7.64317 11.3069 10.3767 11.3069V11.3069Z" stroke="#8290B0" stroke-width="1.6"/>
<path fill-rule="evenodd" clip-rule="evenodd" d="M17.1438 11.957C17.1438 11.957 16.49 11.6714 15.9359 11.4385C15.5034 11.2568 14.5013 10.9987 14.5013 10.9987L16.499 9.98541L18.8895 11.3068L17.1438 11.957Z" fill="#1F2124"/>
<rect x="20.7533" y="17.8332" width="1.41712" height="2.02798" fill="#1F2124"/>
</svg>
