<svg width="26" height="26" viewBox="0 0 26 26" fill="none" xmlns="http://www.w3.org/2000/svg">
<path d="M25.6889 13.4623C25.6941 13.4571 25.6941 13.4571 25.6993 13.4518C25.715 13.4309 25.7307 13.4153 25.7411 13.3944C25.7463 13.3892 25.7463 13.3839 25.7516 13.3787C25.762 13.3578 25.7777 13.3369 25.7881 13.316C25.7881 13.3108 25.7934 13.3056 25.7934 13.3056C25.8038 13.2847 25.8142 13.2638 25.8247 13.2377C25.8247 13.2325 25.8247 13.2325 25.8299 13.2273C25.8404 13.2064 25.8456 13.1803 25.856 13.1541C25.856 13.1489 25.856 13.1437 25.8612 13.1437C25.8665 13.1176 25.8769 13.0967 25.8769 13.0706C25.8769 13.0601 25.8769 13.0549 25.8821 13.0445C25.8874 13.0236 25.8874 13.0027 25.8926 12.9818C25.8978 12.9504 25.8978 12.9243 25.8978 12.893C25.8978 12.8617 25.8978 12.8355 25.8926 12.8042C25.8926 12.7833 25.8874 12.7624 25.8821 12.7415C25.8821 12.7311 25.8821 12.7259 25.8769 12.7154C25.8717 12.6893 25.8665 12.6684 25.8612 12.6423C25.8612 12.6371 25.8613 12.6319 25.856 12.6319C25.8508 12.6057 25.8404 12.5849 25.8299 12.5587C25.8299 12.5535 25.8299 12.5535 25.8247 12.5483C25.8142 12.5274 25.8038 12.5013 25.7934 12.4804C25.7934 12.4752 25.7881 12.47 25.7881 12.47C25.7777 12.4491 25.7672 12.4282 25.7516 12.4073C25.7463 12.4021 25.7463 12.3968 25.7411 12.3916C25.7255 12.3707 25.715 12.3498 25.6993 12.3342C25.6941 12.3289 25.6941 12.3289 25.6889 12.3237C25.668 12.3028 25.6523 12.2767 25.6262 12.2558L20.4609 7.09571C20.111 6.74578 19.5417 6.74578 19.1918 7.09571C18.8418 7.44564 18.8418 8.01492 19.1918 8.36485L22.8268 11.9999H8.37537C7.87921 11.9999 7.47706 12.4021 7.47706 12.893C7.47706 13.3892 7.87921 13.7913 8.37537 13.7913H22.832L19.2231 17.4003C18.8732 17.7502 18.8732 18.3195 19.2231 18.6694C19.3954 18.8417 19.6252 18.9305 19.855 18.9305C20.0849 18.9305 20.3147 18.8417 20.487 18.6694L25.621 13.5354C25.6471 13.5041 25.668 13.4832 25.6889 13.4623Z" fill="#F58575" stroke="#F58575" stroke-width="0.2"/>
<path d="M4.96488 1.89388H11.65C12.1462 1.89388 12.5484 1.49173 12.5484 1.00079C12.5484 0.504621 12.1462 0.102467 11.65 0.102467H4.96488C2.28559 0.102467 0.102467 2.28559 0.102467 4.96488V20.8265C0.102467 23.5058 2.28559 25.6889 4.96488 25.6889H11.5404C12.0365 25.6889 12.4387 25.2867 12.4387 24.7958C12.4387 24.2996 12.0365 23.8975 11.5404 23.8975H4.96488C3.2727 23.8975 1.89388 22.5186 1.89388 20.8265V4.96488C1.8991 3.26747 3.2727 1.89388 4.96488 1.89388Z" fill="#F58575" stroke="#F58575" stroke-width="0.2"/>
</svg>
