<svg width="23" height="27" viewBox="0 0 23 27" fill="none" xmlns="http://www.w3.org/2000/svg">
<path fill-rule="evenodd" clip-rule="evenodd" d="M12.1875 2.9019C12.1875 3.24148 11.9063 3.51932 11.5625 3.51932C11.2188 3.51932 10.9375 3.24148 10.9375 2.87102V0.617424C10.9375 0.277841 11.2188 0 11.5625 0C11.9063 0 12.1875 0.277841 12.1875 0.617424V2.9019ZM7.28125 18.2449C7.40625 18.4301 7.59375 18.5227 7.8125 18.5227H15.3125C15.5313 18.5227 15.7188 18.4301 15.8438 18.2449C17.1875 16.2691 18.0938 13.4599 18.0938 11.2989C18.0938 7.40909 15.1563 4.22936 11.5625 4.22936C7.96875 4.22936 5.03125 7.40909 5.03125 11.2989C5.03125 13.4599 5.9375 16.2691 7.28125 18.2449ZM11.5625 5.46421C14.4688 5.46421 16.8438 8.08826 16.8438 11.2989C16.8438 13.1511 16.0938 15.4974 14.9688 17.2879H8.15625C7.03125 15.4974 6.28125 13.1511 6.28125 11.2989C6.28125 8.08826 8.625 5.46421 11.5625 5.46421ZM15.6563 20.8072V20.7146C15.6563 19.7885 14.875 19.0167 13.9375 19.0167H9.15625C8.21875 19.0167 7.4375 19.7885 7.4375 20.7146V20.8072C7.4375 21.7333 8.21875 22.5051 9.15625 22.5051H13.9375C14.9063 22.5051 15.6563 21.7333 15.6563 20.8072ZM14.4063 20.8072C14.4063 21.0542 14.1875 21.2703 13.9375 21.2703H9.15625C8.90625 21.2703 8.6875 21.0542 8.6875 20.8072V20.7146C8.6875 20.4676 8.90625 20.2515 9.15625 20.2515H13.9375C14.1875 20.2515 14.4063 20.4676 14.4063 20.7146V20.8072ZM10.5 23.1534H12.5938C13.5313 23.1534 14.3125 23.9252 14.3125 24.8513V24.9439C14.3125 25.8701 13.5313 26.6419 12.5938 26.6419H10.5C9.5625 26.6419 8.78125 25.8701 8.78125 24.9439V24.8513C8.78125 23.9252 9.5625 23.1534 10.5 23.1534ZM12.5938 25.4379C12.8438 25.4379 13.0625 25.2218 13.0625 24.9748V24.8822C13.0625 24.6352 12.8438 24.4191 12.5938 24.4191H10.5C10.25 24.4191 10.0313 24.6352 10.0313 24.8822V24.9748C10.0313 25.2218 10.25 25.4379 10.5 25.4379H12.5938ZM17.625 6.01989C17.7813 6.01989 17.9375 5.95815 18.0625 5.83466L19.6875 4.22936C19.9375 3.98239 19.9375 3.61193 19.6875 3.36496C19.4375 3.11799 19.0625 3.11799 18.8125 3.36496L17.1875 4.97027C16.9375 5.21724 16.9375 5.58769 17.1875 5.83466C17.2813 5.95815 17.4688 6.01989 17.625 6.01989ZM20.0938 12.0398C19.75 12.0398 19.4688 11.7619 19.4688 11.4224C19.4688 11.0828 19.75 10.8049 20.0938 10.8049H22.375C22.7188 10.8049 23 11.0828 23 11.4224C23 11.7619 22.7188 12.0398 22.375 12.0398H20.0938ZM19.1563 19.6341C19.3125 19.6341 19.4688 19.5724 19.5938 19.4489C19.8438 19.2019 19.8438 18.8314 19.5938 18.5845L17.9688 16.9792C17.7188 16.7322 17.3438 16.7322 17.0938 16.9792C16.8438 17.2261 16.8438 17.5966 17.0938 17.8436L18.7188 19.4489C18.8438 19.5724 19 19.6341 19.1563 19.6341ZM5.84375 16.9174C6.09375 17.1644 6.09375 17.5349 5.84375 17.7818L4.21875 19.3871C4.09375 19.5106 3.9375 19.5724 3.78125 19.5724C3.625 19.5724 3.46875 19.5106 3.34375 19.3871C3.09375 19.1402 3.09375 18.7697 3.34375 18.5227L4.96875 16.9174C5.21875 16.6705 5.59375 16.6705 5.84375 16.9174ZM0.625 11.9472H2.90625C3.25 11.9472 3.53125 11.6693 3.53125 11.3297C3.53125 10.9902 3.25 10.7123 2.90625 10.7123H0.625C0.28125 10.7123 0 10.9902 0 11.3297C0 11.6693 0.28125 11.9472 0.625 11.9472ZM5.46875 5.95815C5.3125 5.95815 5.15625 5.8964 5.03125 5.77292L3.40625 4.16762C3.15625 3.92065 3.15625 3.55019 3.40625 3.30322C3.65625 3.05625 4.03125 3.05625 4.28125 3.30322L5.90625 4.90852C6.15625 5.15549 6.15625 5.52595 5.90625 5.77292C5.78125 5.8964 5.625 5.95815 5.46875 5.95815Z" fill="#8A88B7"/>
</svg>
