<svg width="41" height="41" viewBox="0 0 41 41" fill="none" xmlns="http://www.w3.org/2000/svg">
<path d="M36.6187 4.41091C35.7642 3.53388 34.4995 3.20714 33.3203 3.55107L5.82195 11.5475C4.57778 11.8932 3.69592 12.8854 3.45836 14.146C3.21568 15.4288 4.06336 17.0574 5.17081 17.7384L13.769 23.0229C14.6508 23.5646 15.789 23.4287 16.5188 22.6927L26.3645 12.7857C26.8601 12.2698 27.6805 12.2698 28.1761 12.7857C28.6717 13.2844 28.6717 14.0927 28.1761 14.6086L18.3133 24.5173C17.5818 25.2516 17.4451 26.3952 17.9834 27.2825L23.237 35.9669C23.8523 36.9987 24.9119 37.5834 26.074 37.5834C26.2107 37.5834 26.3645 37.5834 26.5013 37.5662C27.8343 37.3942 28.8939 36.4828 29.287 35.193L37.4391 7.72987C37.798 6.5605 37.4732 5.28794 36.6187 4.41091Z" fill="#7C01F6"/>
</svg>
