<svg width="9" height="9" viewBox="0 0 9 9" fill="none" xmlns="http://www.w3.org/2000/svg">
<path d="M8.64155 6.95139C9.10903 7.41887 9.10903 8.1751 8.64155 8.6412C8.4078 8.87494 8.10532 9.00007 7.78908 9.00007C7.48659 9.00007 7.1841 8.89007 6.95036 8.6412L4.50295 6.20892L2.05555 8.6412C1.82181 8.87494 1.51932 9.00007 1.20308 9.00007C0.900591 9.00007 0.584353 8.87494 0.350612 8.6412C-0.116871 8.1751 -0.116871 7.41887 0.350612 6.93764L2.79802 4.50399L0.350612 2.0552C-0.116871 1.5891 -0.116871 0.819125 0.350612 0.351643C0.818094 -0.117214 1.57432 -0.117214 2.05555 0.351643L4.50295 2.79767L6.93661 0.351643C7.41784 -0.117214 8.17406 -0.117214 8.64155 0.351643C9.10903 0.819125 9.10903 1.5891 8.64155 2.0552L6.19414 4.50399L8.64155 6.95139Z" fill="white"/>
</svg>
