<svg width="6" height="6" viewBox="0 0 6 6" fill="none" xmlns="http://www.w3.org/2000/svg">
<path d="M5.76094 4.63419C6.0726 4.94584 6.0726 5.44998 5.76094 5.76072C5.60512 5.91654 5.40346 5.99995 5.19264 5.99995C4.99099 5.99995 4.78933 5.92662 4.6335 5.76072L3.00192 4.13922L1.37034 5.76072C1.21452 5.91654 1.01286 5.99995 0.802041 5.99995C0.600385 5.99995 0.389563 5.91654 0.233738 5.76072C-0.0779126 5.44998 -0.0779126 4.94584 0.233738 4.62503L1.86532 3.00261L0.233738 1.37012C-0.0779126 1.05938 -0.0779126 0.546075 0.233738 0.234425C0.545388 -0.0781417 1.04953 -0.0781417 1.37034 0.234425L3.00192 1.86509L4.62434 0.234425C4.94516 -0.0781417 5.44929 -0.0781417 5.76094 0.234425C6.0726 0.546075 6.0726 1.05938 5.76094 1.37012L4.12936 3.00261L5.76094 4.63419Z" fill="white"/>
</svg>
