<svg width="15" height="15" viewBox="0 0 15 15" fill="none" xmlns="http://www.w3.org/2000/svg">
<path d="M14.4235 14.0525L14.7776 13.6995L14.7773 13.6992L14.4235 14.0525ZM10.3445 9.96796L9.9972 9.60829L9.63144 9.96149L9.99074 10.3213L10.3445 9.96796ZM9.9388 10.3243L10.2926 9.97096L9.97646 9.65438L9.62683 9.93353L9.9388 10.3243ZM14.0276 14.4189L14.3825 14.0666L14.3815 14.0655L14.0276 14.4189ZM14.4158 14.4263L14.755 14.7936L14.7556 14.793L14.4158 14.4263ZM14.7773 13.6992L10.6983 9.61465L9.99074 10.3213L14.0697 14.4058L14.7773 13.6992ZM10.6919 10.3276C11.8232 9.23512 12.5295 7.72281 12.5295 6.05073H11.5295C11.5295 7.43367 10.9467 8.69143 9.9972 9.60829L10.6919 10.3276ZM12.5295 6.05073C12.5295 2.6961 9.70173 0 6.26474 0V1C9.18544 1 11.5295 3.2837 11.5295 6.05073H12.5295ZM6.26474 0C2.82775 0 0 2.6961 0 6.05073H1C1 3.2837 3.34404 1 6.26474 1V0ZM0 6.05073C0 9.40536 2.82775 12.1015 6.26474 12.1015V11.1015C3.34404 11.1015 1 8.81776 1 6.05073H0ZM6.26474 12.1015C7.77625 12.1015 9.16626 11.5809 10.2508 10.715L9.62683 9.93353C8.7151 10.6615 7.54392 11.1015 6.26474 11.1015V12.1015ZM9.585 10.6776L13.6738 14.7722L14.3815 14.0655L10.2926 9.97096L9.585 10.6776ZM13.6728 14.7712C13.8272 14.9266 14.03 15 14.2256 15V14C14.2768 14 14.3357 14.0194 14.3825 14.0666L13.6728 14.7712ZM14.2256 15C14.4131 15 14.6045 14.9326 14.755 14.7936L14.0767 14.0589C14.1206 14.0183 14.1753 14 14.2256 14V15ZM14.7556 14.793C15.0724 14.4995 15.0828 14.0057 14.7776 13.6995L14.0694 14.4055C13.9739 14.3097 13.9777 14.1505 14.076 14.0595L14.7556 14.793ZM6.26474 10.5728C3.64683 10.5728 1.54902 8.52621 1.54902 6.05073H0.549023C0.549023 9.11382 3.13054 11.5728 6.26474 11.5728V10.5728ZM1.54902 6.05073C1.54902 3.57525 3.64683 1.52864 6.26474 1.52864V0.528641C3.13054 0.528641 0.549023 2.98764 0.549023 6.05073H1.54902ZM6.26474 1.52864C8.88265 1.52864 10.9805 3.57525 10.9805 6.05073H11.9805C11.9805 2.98764 9.39894 0.528641 6.26474 0.528641V1.52864ZM10.9805 6.05073C10.9805 8.5262 8.88239 10.5728 6.26474 10.5728V11.5728C9.39865 11.5728 11.9805 9.11384 11.9805 6.05073H10.9805Z" fill="white"/>
</svg>
