<svg width="25" height="25" viewBox="0 0 25 25" fill="none" xmlns="http://www.w3.org/2000/svg">
<path d="M3.5 6.90002H5.5H21.5" stroke="#FD483C" stroke-width="2" stroke-linecap="round" stroke-linejoin="round"/>
<path d="M19.5 6.90002V20.9C19.5 21.4305 19.2893 21.9392 18.9142 22.3142C18.5391 22.6893 18.0304 22.9 17.5 22.9H7.5C6.96957 22.9 6.46086 22.6893 6.08579 22.3142C5.71071 21.9392 5.5 21.4305 5.5 20.9V6.90002M8.5 6.90002V4.90002C8.5 4.36959 8.71071 3.86088 9.08579 3.48581C9.46086 3.11074 9.96957 2.90002 10.5 2.90002H14.5C15.0304 2.90002 15.5391 3.11074 15.9142 3.48581C16.2893 3.86088 16.5 4.36959 16.5 4.90002V6.90002" stroke="#FD483C" stroke-width="2" stroke-linecap="round" stroke-linejoin="round"/>
<path d="M10.5 11.9V17.9" stroke="#FD483C" stroke-width="2" stroke-linecap="round" stroke-linejoin="round"/>
<path d="M14.5 11.9V17.9" stroke="#FD483C" stroke-width="2" stroke-linecap="round" stroke-linejoin="round"/>
</svg>
